# xmcd
#
# Track frame offsets: 
#        150
#        13762
#        25713
#        43331
#        56631
#        69442
#        87160
#        104465
#        122018
#        134524
#        147890
#        165155
#        180614
#        192750
#
# Disc length: 2703 seconds
#
# Revision: 0
# Processed by: cddbd v1.5.2PL0 Copyright (c) Steve Scherf et al.
# Submitted via: ExactAudioCopyFreeDBPlugin 1.0
#
DISCID=bb0a8d0e
DTITLE=Orquestra de Violas Caipira de Itapuí - Volume II
DYEAR=2012
DGENRE=Sertanejo Raiz
TTITLE0=A Volta do Boiadeiro
TTITLE1=Moradia de Caboclo
TTITLE2=Berrante de Ouro
TTITLE3=Gente da Minha Terra
TTITLE4=Monte Alegre
TTITLE5=Pescador e Catireiro
TTITLE6=Obras de Poeta
TTITLE7=Velha Porteira 
TTITLE8=Saudade do Boiadeiro
TTITLE9=Coisas Boas do Sertão
TTITLE10=Mágoa do Boiadeiro
TTITLE11=Sonho de Caboclo
TTITLE12=Homenagem às Mães
TTITLE13=Chalana (Instrumental)
EXTD=
EXTT0=
EXTT1=
EXTT2=
EXTT3=
EXTT4=
EXTT5=
EXTT6=
EXTT7=
EXTT8=
EXTT9=
EXTT10=
EXTT11=
EXTT12=
EXTT13=
PLAYORDER=
